# xmcd CD database file
#
# Track frame offsets:
#	150
#	24614
#	48868
#
# Disc length: 891 seconds
#
# Revision: 0
# Processed by: cddbd v1.5.1PL0 Copyright (c) Steve Scherf et al.
# Submitted via: CDex 1.51
#
DISCID=1b037903
DTITLE=Bachicco! - 渚行き／だから・・・For You
DYEAR=2003
DGENRE=JPop
TTITLE0=渚行き
TTITLE1=だから・・・For You
TTITLE2=Traveling Love
EXTD=YEAR: 2003
EXTT0=
EXTT1=
EXTT2=
PLAYORDER=
